<mxfile host="Electron" modified="2024-01-17T21:03:36.044Z" agent="Mozilla/5.0 (Windows NT 10.0; Win64; x64) AppleWebKit/537.36 (KHTML, like Gecko) draw.io/22.1.18 Chrome/120.0.6099.199 Electron/28.1.2 Safari/537.36" etag="U1TCD7nwiHOD3QjOeIbY" version="22.1.18" type="device">
  <diagram name="Page-1" id="7e4C0lDfBAo1UtrRcG9H">
    <mxGraphModel dx="1434" dy="844" grid="1" gridSize="10" guides="1" tooltips="1" connect="1" arrows="1" fold="1" page="1" pageScale="1" pageWidth="850" pageHeight="1100" math="0" shadow="0">
      <root>
        <mxCell id="0" />
        <mxCell id="1" parent="0" />
        <mxCell id="FeeZyDb7Tj2wdLa3kNtq-1" value="HealthBar" style="swimlane;fontStyle=1;align=center;verticalAlign=top;childLayout=stackLayout;horizontal=1;startSize=26;horizontalStack=0;resizeParent=1;resizeParentMax=0;resizeLast=0;collapsible=1;marginBottom=0;whiteSpace=wrap;html=1;" vertex="1" parent="1">
          <mxGeometry x="330" y="24" width="160" height="122" as="geometry" />
        </mxCell>
        <mxCell id="FeeZyDb7Tj2wdLa3kNtq-2" value="InitHealthBar()&lt;br&gt;UpdateHealthBar()" style="text;strokeColor=none;fillColor=none;align=left;verticalAlign=top;spacingLeft=4;spacingRight=4;overflow=hidden;rotatable=0;points=[[0,0.5],[1,0.5]];portConstraint=eastwest;whiteSpace=wrap;html=1;" vertex="1" parent="FeeZyDb7Tj2wdLa3kNtq-1">
          <mxGeometry y="26" width="160" height="36" as="geometry" />
        </mxCell>
        <mxCell id="FeeZyDb7Tj2wdLa3kNtq-3" value="" style="line;strokeWidth=1;fillColor=none;align=left;verticalAlign=middle;spacingTop=-1;spacingLeft=3;spacingRight=3;rotatable=0;labelPosition=right;points=[];portConstraint=eastwest;strokeColor=inherit;" vertex="1" parent="FeeZyDb7Tj2wdLa3kNtq-1">
          <mxGeometry y="62" width="160" height="8" as="geometry" />
        </mxCell>
        <mxCell id="FeeZyDb7Tj2wdLa3kNtq-4" value="&lt;b&gt;Blueprint Implementation&lt;/b&gt;" style="text;strokeColor=none;fillColor=none;align=center;verticalAlign=top;spacingLeft=4;spacingRight=4;overflow=hidden;rotatable=0;points=[[0,0.5],[1,0.5]];portConstraint=eastwest;whiteSpace=wrap;html=1;" vertex="1" parent="FeeZyDb7Tj2wdLa3kNtq-1">
          <mxGeometry y="70" width="160" height="26" as="geometry" />
        </mxCell>
        <mxCell id="FeeZyDb7Tj2wdLa3kNtq-5" value="Health Bar" style="text;strokeColor=none;fillColor=none;align=left;verticalAlign=top;spacingLeft=4;spacingRight=4;overflow=hidden;rotatable=0;points=[[0,0.5],[1,0.5]];portConstraint=eastwest;whiteSpace=wrap;html=1;" vertex="1" parent="FeeZyDb7Tj2wdLa3kNtq-1">
          <mxGeometry y="96" width="160" height="26" as="geometry" />
        </mxCell>
        <mxCell id="FeeZyDb7Tj2wdLa3kNtq-6" value="Managed by Soul system for now. Not sure where else I would put it unless I want it to be a standalone" style="shape=note;size=20;whiteSpace=wrap;html=1;strokeColor=#3333FF;" vertex="1" parent="1">
          <mxGeometry x="550" y="24" width="130" height="120" as="geometry" />
        </mxCell>
        <mxCell id="FeeZyDb7Tj2wdLa3kNtq-7" value="" style="endArrow=classic;html=1;rounded=0;exitX=0;exitY=0.5;exitDx=0;exitDy=0;exitPerimeter=0;entryX=1;entryY=-0.154;entryDx=0;entryDy=0;entryPerimeter=0;" edge="1" parent="1" source="FeeZyDb7Tj2wdLa3kNtq-6" target="FeeZyDb7Tj2wdLa3kNtq-4">
          <mxGeometry width="50" height="50" relative="1" as="geometry">
            <mxPoint x="550" y="114" as="sourcePoint" />
            <mxPoint x="600" y="64" as="targetPoint" />
          </mxGeometry>
        </mxCell>
        <mxCell id="FeeZyDb7Tj2wdLa3kNtq-8" value="" style="endArrow=classic;html=1;rounded=0;exitX=0.462;exitY=1.055;exitDx=0;exitDy=0;exitPerimeter=0;" edge="1" parent="1" source="FeeZyDb7Tj2wdLa3kNtq-5">
          <mxGeometry width="50" height="50" relative="1" as="geometry">
            <mxPoint x="420" y="254" as="sourcePoint" />
            <mxPoint x="404" y="194" as="targetPoint" />
          </mxGeometry>
        </mxCell>
        <mxCell id="FeeZyDb7Tj2wdLa3kNtq-9" value="Player" style="swimlane;fontStyle=0;childLayout=stackLayout;horizontal=1;startSize=26;fillColor=none;horizontalStack=0;resizeParent=1;resizeParentMax=0;resizeLast=0;collapsible=1;marginBottom=0;whiteSpace=wrap;html=1;" vertex="1" parent="1">
          <mxGeometry x="330" y="194" width="140" height="78" as="geometry" />
        </mxCell>
        <mxCell id="FeeZyDb7Tj2wdLa3kNtq-10" value="Health" style="text;strokeColor=none;fillColor=none;align=left;verticalAlign=top;spacingLeft=4;spacingRight=4;overflow=hidden;rotatable=0;points=[[0,0.5],[1,0.5]];portConstraint=eastwest;whiteSpace=wrap;html=1;" vertex="1" parent="FeeZyDb7Tj2wdLa3kNtq-9">
          <mxGeometry y="26" width="140" height="26" as="geometry" />
        </mxCell>
        <mxCell id="FeeZyDb7Tj2wdLa3kNtq-11" value="..." style="text;strokeColor=none;fillColor=none;align=left;verticalAlign=top;spacingLeft=4;spacingRight=4;overflow=hidden;rotatable=0;points=[[0,0.5],[1,0.5]];portConstraint=eastwest;whiteSpace=wrap;html=1;" vertex="1" parent="FeeZyDb7Tj2wdLa3kNtq-9">
          <mxGeometry y="52" width="140" height="26" as="geometry" />
        </mxCell>
        <mxCell id="FeeZyDb7Tj2wdLa3kNtq-12" value="Needs acess to" style="text;html=1;strokeColor=none;fillColor=none;align=center;verticalAlign=middle;whiteSpace=wrap;rounded=0;" vertex="1" parent="1">
          <mxGeometry x="400" y="154" width="60" height="30" as="geometry" />
        </mxCell>
        <mxCell id="FeeZyDb7Tj2wdLa3kNtq-13" value="" style="endArrow=classic;html=1;rounded=0;" edge="1" parent="1">
          <mxGeometry width="50" height="50" relative="1" as="geometry">
            <mxPoint x="270" y="74" as="sourcePoint" />
            <mxPoint x="330" y="74" as="targetPoint" />
          </mxGeometry>
        </mxCell>
        <mxCell id="FeeZyDb7Tj2wdLa3kNtq-14" value="Called by a delegate of Player when health is updated. Avoid that constant tick call yknow?" style="shape=note;size=20;whiteSpace=wrap;html=1;strokeColor=#3333FF;" vertex="1" parent="1">
          <mxGeometry x="170" y="20" width="100" height="100" as="geometry" />
        </mxCell>
      </root>
    </mxGraphModel>
  </diagram>
</mxfile>
